HIERARCHY
ROOT Hips
{
	OFFSET 0.00000 0.00000 0.00000
	CHANNELS 6 Xposition Yposition Zposition Zrotation Yrotation Xrotation 
	JOINT LHipJoint
	{
		OFFSET 0 0 0
		CHANNELS 3 Zrotation Yrotation Xrotation
		JOINT LeftHip
		{
			OFFSET 1.61328 -1.70571 0.84375
			CHANNELS 3 Zrotation Yrotation Xrotation
			JOINT LeftKnee
			{
				OFFSET 2.32400 -6.38513 0.00000
				CHANNELS 3 Zrotation Yrotation Xrotation
				JOINT LeftAnkle
				{
					OFFSET 2.58843 -7.11166 0.00000
					CHANNELS 3 Zrotation Yrotation Xrotation
					JOINT LeftToe
					{
						OFFSET 0.17200 -0.47257 2.47970
						CHANNELS 3 Zrotation Yrotation Xrotation
						End Site
						{
							OFFSET 0.00000 -0.00000 1.26912
						}
					}
				}
			}
		}
	}
	JOINT RHipJoint
	{
		OFFSET 0 0 0
		CHANNELS 3 Zrotation Yrotation Xrotation
		JOINT RightHip
		{
			OFFSET -1.49930 -1.70570 0.84375
			CHANNELS 3 Zrotation Yrotation Xrotation
			JOINT RightKnee
			{
				OFFSET -2.30458 -6.33178 0.00000
				CHANNELS 3 Zrotation Yrotation Xrotation
				JOINT RightAnkle
				{
					OFFSET -2.62261 -7.20556 0.00000
					CHANNELS 3 Zrotation Yrotation Xrotation
					JOINT RightToe
					{
						OFFSET -0.18709 -0.51403 2.51340
						CHANNELS 3 Zrotation Yrotation Xrotation
						End Site
						{
							OFFSET -0.00000 -0.00000 1.28858
						}
					}
				}
			}
		}
	}
	JOINT lowerback
	{
		OFFSET 0 0 0
		CHANNELS 3 Zrotation Yrotation Xrotation
		JOINT Chest
		{
			OFFSET -0.03798 2.19274 -0.19881
			CHANNELS 3 Zrotation Yrotation Xrotation
			JOINT Chest2
			{
				OFFSET -0.00024 2.19460 0.05248
				CHANNELS 3 Zrotation Yrotation Xrotation
				JOINT lowerneck
				{
					OFFSET 0 0 0
					CHANNELS 3 Zrotation Yrotation Xrotation
					JOINT Neck
					{
						OFFSET -0.00746 1.82323 0.17286
						CHANNELS 3 Zrotation Yrotation Xrotation
						JOINT Head
						{
							OFFSET 0.11826 1.82121 -0.27841
							CHANNELS 3 Zrotation Yrotation Xrotation
							End Site
							{
								OFFSET 0.03496 1.85543 -0.11495
							}
						}
					}
				}
				JOINT LeftCollar
				{
					OFFSET 0 0 0
					CHANNELS 3 Zrotation Yrotation Xrotation
					JOINT LeftShoulder
					{
						OFFSET 3.71926 0.78840 0.25473
CHANNELS 3 Zrotation Xrotation Yrotation
						JOINT LeftElbow
						{
OFFSET 0 -5.375870 0.000000
CHANNELS 3 Zrotation Xrotation Yrotation
							JOINT LeftWrist
							{
OFFSET 0 -3.359770 0.000000
CHANNELS 3 Zrotation Xrotation Yrotation
								JOINT lhand
								{
									OFFSET 0 0 0
CHANNELS 3 Zrotation Xrotation Yrotation
									JOINT LFingers
									{
OFFSET 0 -0.561860 0.000000
CHANNELS 3 Zrotation Xrotation Yrotation
										End Site
										{
OFFSET 0 -0.452990 0.000000
										}
									}
								}
								JOINT LThumb
								{
OFFSET 0 0.000000 0.000000
CHANNELS 3 Zrotation Xrotation Yrotation
									End Site
									{
OFFSET 0 -0.459900 0.459900
									}
								}
							}
						}
					}
				}
				JOINT RightCollar
				{
					OFFSET 0 0 0
					CHANNELS 3 Zrotation Yrotation Xrotation
					JOINT RightShoulder
					{
						OFFSET -3.65136 0.56074 0.01624
CHANNELS 3 Zrotation Xrotation Yrotation
						JOINT RightElbow
						{
OFFSET 0 -5.228190 0.000000
CHANNELS 3 Zrotation Xrotation Yrotation
							JOINT RightWrist
							{
OFFSET 0 -3.407640 0.000000
CHANNELS 3 Zrotation Xrotation Yrotation
								JOINT rhand
								{
									OFFSET 0 0 0
CHANNELS 3 Zrotation Xrotation Yrotation
									JOINT RFingers
									{
OFFSET 0 -0.583250 0.000000
CHANNELS 3 Zrotation Xrotation Yrotation
										End Site
										{
OFFSET 0 -0.470240 0.000000
										}
									}
								}
								JOINT RThumb
								{
OFFSET 0 0.000000 0.000000
CHANNELS 3 Zrotation Xrotation Yrotation
									End Site
									{
OFFSET 0 -0.477420 0.477420
									}
								}
							}
						}
					}
				}
			}
		}
	}
}
MOTION
Frames: 12
Frame Time: 0.008333333333333333
3.490536 13.226999 -5.191238 -559.528045 80.506211 539.916484 0.000000 0.000000 0.000000 -15.654796 -8.142550 -71.032979 22.859304 19.802695 98.386532 2.245213 0.300087 -28.487314 3.235979 -11.067531 -32.507913 0.000000 0.000000 0.000000 4.810343 9.808049 -82.573317 -21.069147 -19.972453 93.127469 -2.385072 3.760402 -28.315856 -0.257588 -3.264875 9.017214 3.085032 0.915450 44.843062 2.396214 5.427104 16.550252 -1.089328 3.700809 -2.221149 4.391526 6.103979 0.539020 -15.865187 7.042025 -28.422064 -6.764960 5.424277 -7.990790 0.000000 0.000000 0.000000 20.585426 -3.703332 -19.024528 86.368859 -59.950109 56.855854 38.201607 -11.250280 -8.113807 0.000000 0.000000 0.000000 -7.125000 0.000000 0.000000 9.969874 40.067054 1.226404 0.000000 0.000000 0.000000 -59.946531 -48.771828 -1.787456 -107.730263 -58.778236 -75.291906 -41.368907 -1.675781 -12.788334 0.000000 0.000000 0.000000 7.125000 0.000000 0.000000 -9.473949 13.317995 -7.137167
4.193308 13.134745 -4.768175 -562.261533 78.682843 536.264788 0.000000 0.000000 0.000000 -12.361698 -6.809435 -74.290043 25.346531 19.300196 105.809501 0.774679 0.376481 -16.765157 2.698964 -10.190466 -29.596250 0.000000 0.000000 0.000000 5.743010 11.489092 -78.997707 -22.067404 -19.897246 96.054631 -3.333825 2.398844 -34.023712 -0.134200 -2.360970 6.504305 3.752120 0.375147 45.049227 2.641158 5.203278 16.650515 -1.080784 3.664646 -2.141392 4.432608 5.865803 0.498413 -15.914111 6.714715 -27.982784 -6.739566 5.243344 -7.865093 0.000000 0.000000 0.000000 18.716020 -1.596357 -19.074631 83.688988 -59.848959 54.537238 37.654088 -10.885615 -9.027821 0.000000 0.000000 0.000000 -7.125000 0.000000 0.000000 9.551429 41.139061 0.918906 0.000000 0.000000 0.000000 -60.012901 -49.430179 -0.389969 -106.240867 -58.979495 -74.016869 -41.239410 -1.649734 -12.876038 0.000000 0.000000 0.000000 7.125000 0.000000 0.000000 -9.373330 13.234762 -7.075832
4.933315 12.999909 -4.399416 -561.973543 77.167219 535.552891 0.000000 0.000000 0.000000 -8.913736 -5.260797 -82.974080 28.167896 18.318692 114.544392 0.002293 3.284003 -4.794767 0.815388 -5.762032 -16.095474 0.000000 0.000000 0.000000 8.125603 12.621179 -75.193066 -22.985483 -19.784898 98.759215 -4.403577 1.127328 -39.620542 -0.074444 -1.759736 4.842132 3.922831 0.231934 44.935927 2.879213 5.197667 16.710053 -0.906997 3.695933 -2.058434 4.240537 5.167026 0.366283 -14.929487 5.914489 -27.952710 -6.334167 4.760976 -7.981458 0.000000 0.000000 0.000000 17.192505 0.774483 -18.659306 81.465315 -59.722941 52.615611 37.489252 -10.846086 -8.998963 0.000000 0.000000 0.000000 -7.125000 0.000000 0.000000 9.400541 41.085240 0.916701 0.000000 0.000000 0.000000 -60.318147 -49.441249 0.671658 -106.108799 -58.996454 -73.903653 -41.249160 -1.534115 -13.136788 0.000000 0.000000 0.000000 7.125000 0.000000 0.000000 -9.332159 12.902211 -7.109880
5.747441 12.920621 -4.130043 -561.642619 75.106749 535.730925 0.000000 0.000000 0.000000 -14.138247 -7.323986 -90.250758 25.042095 19.376598 104.892028 0.484342 -0.597998 -12.948652 2.210185 -9.289968 -26.707178 0.000000 0.000000 0.000000 10.479549 13.282648 -71.254459 -23.555652 -19.694126 100.447213 -5.629397 -0.446308 -45.372475 -0.032001 -1.154718 3.174675 3.871714 0.077504 44.628699 2.676486 4.968613 16.369256 -1.025261 3.591966 -2.355487 4.167309 4.178661 -0.285071 -13.903572 4.725972 -27.689457 -5.875927 4.060343 -7.948015 0.000000 0.000000 0.000000 16.210241 2.076355 -18.556392 78.391665 -59.484524 49.964287 37.573728 -11.440482 -8.690514 0.000000 0.000000 0.000000 -7.125000 0.000000 0.000000 9.454435 40.714687 1.009286 0.000000 0.000000 0.000000 -58.846345 -48.428847 1.893602 -106.869175 -58.896937 -74.555015 -41.520962 -1.605752 -13.223361 0.000000 0.000000 0.000000 7.125000 0.000000 0.000000 -9.493049 12.731452 -7.270348
6.645793 13.030445 -4.016320 -561.001332 73.378785 536.721666 0.000000 0.000000 0.000000 -25.685636 -8.215887 -91.789516 18.534233 19.947427 85.710551 0.594161 1.754738 -15.298820 2.556689 -9.940004 -28.782818 0.000000 0.000000 0.000000 13.217217 13.171922 -66.268692 -23.361508 -19.726882 99.871405 -6.585860 -2.070403 -49.588652 -0.000961 0.176018 -0.483615 3.823215 0.270640 43.049584 2.387055 4.969972 15.971011 -1.283365 3.574245 -2.368770 4.151106 4.554528 -0.856760 -14.330226 5.244443 -26.663679 -5.938435 4.307613 -7.425354 0.000000 0.000000 0.000000 15.443221 2.219596 -20.204125 73.815531 -58.986641 46.031512 37.360527 -11.226302 -8.580355 0.000000 0.000000 0.000000 -7.125000 0.000000 0.000000 9.255665 40.556514 1.024082 0.000000 0.000000 0.000000 -55.683516 -46.573313 4.220693 -106.328818 -58.968125 -74.092184 -41.572275 -1.441313 -12.819708 0.000000 0.000000 0.000000 7.125000 0.000000 0.000000 -9.600999 13.233516 -7.252916
7.665443 13.206937 -4.098182 -558.501182 72.451371 538.880331 0.000000 0.000000 0.000000 -28.549379 -8.614692 -85.685131 16.309344 19.670226 79.151925 0.333829 3.816991 -12.993129 0.641383 -5.123355 -14.260891 0.000000 0.000000 0.000000 16.654814 10.206563 -61.187050 -23.210707 -19.751048 99.425166 -6.688294 -2.438558 -50.076759 -0.122953 2.259563 -6.223617 3.160755 1.049571 40.346866 2.315367 5.328866 15.534742 -1.083237 3.662672 -2.124320 4.735124 6.427930 -2.130391 -15.770571 7.790291 -24.642604 -6.354239 5.518130 -6.164358 0.000000 0.000000 0.000000 14.212246 1.917435 -21.690924 69.667256 -58.378669 42.487224 37.629584 -10.534212 -8.407120 0.000000 0.000000 0.000000 -7.125000 0.000000 0.000000 9.483483 40.371232 1.093466 0.000000 0.000000 0.000000 -49.180916 -43.030402 9.881469 -105.780055 -59.037861 -73.621781 -41.566726 -1.577182 -13.234332 0.000000 0.000000 0.000000 7.125000 0.000000 0.000000 -9.520790 12.707293 -7.297093
8.793390 13.436400 -4.249093 -555.202833 70.475556 541.958900 0.000000 0.000000 0.000000 -24.710081 -12.306070 -77.643575 16.207934 19.651664 78.850563 1.037089 1.578000 -19.869092 0.344348 -3.761107 -10.406530 0.000000 0.000000 0.000000 17.511849 4.964611 -60.385810 -24.563280 -19.492779 103.451492 -4.107455 -1.914896 -39.106978 -0.171667 2.664879 -7.347329 1.996580 1.839884 37.312439 2.157151 5.390817 13.944503 -0.648686 3.487047 -3.000897 5.664909 7.856423 -5.769530 -15.132882 10.003691 -20.401858 -5.811918 6.169376 -3.989342 0.000000 0.000000 0.000000 14.255508 -1.452033 -24.380255 62.864465 -57.025884 36.734603 37.678336 -10.372999 -7.898944 0.000000 0.000000 0.000000 -7.125000 0.000000 0.000000 9.487869 39.748781 1.241035 0.000000 0.000000 0.000000 -38.366057 -35.220009 18.775400 -104.574498 -59.181889 -72.587143 -42.292533 -1.401774 -13.456718 0.000000 0.000000 0.000000 7.125000 0.000000 0.000000 -9.948699 12.255542 -7.730422
9.940533 13.713449 -4.395375 -553.354239 67.885174 542.127299 0.000000 0.000000 0.000000 -23.480072 -14.609444 -68.944888 16.064294 19.624499 78.423182 1.433830 2.032929 -23.435255 0.124846 -2.275550 -6.267991 0.000000 0.000000 0.000000 13.413695 1.804703 -65.881456 -27.612317 -18.549420 112.787901 -0.226685 -7.002873 -14.157006 -0.329486 -3.688073 10.200831 1.623463 1.913508 35.482123 1.820392 4.986289 12.249748 -0.712000 3.149054 -4.372643 6.338533 8.819508 -9.086303 -14.699828 11.373956 -15.796098 -5.320143 6.440974 -1.934881 0.000000 0.000000 0.000000 15.800354 -7.265926 -29.438829 62.383304 -56.912258 36.331220 36.593174 -9.579156 -8.532252 0.000000 0.000000 0.000000 -7.125000 0.000000 0.000000 8.566650 40.417791 0.976049 0.000000 0.000000 0.000000 -29.986928 -26.713622 26.353368 -96.037271 -59.859738 -65.225854 -42.949540 -2.570259 -14.277494 0.000000 0.000000 0.000000 7.125000 0.000000 0.000000 -10.210053 11.041622 -8.200259
11.106926 13.979546 -4.544248 -552.382472 65.717683 540.709132 0.000000 0.000000 0.000000 -23.783247 -13.752409 -59.691452 15.695357 19.549835 77.322715 1.939080 1.347489 -26.845035 0.267609 -3.327889 -9.192997 0.000000 0.000000 0.000000 7.127800 4.810612 -70.880971 -25.947412 -19.129480 107.635271 -1.121202 -3.220680 -21.400936 -0.263973 -3.304747 9.128445 1.611290 1.745780 32.470054 1.803073 4.430809 11.213266 -0.527559 2.771776 -4.957568 6.708555 9.558947 -11.100738 -14.193966 12.375961 -10.382465 -4.835772 6.515203 0.059222 0.000000 0.000000 0.000000 15.928822 -11.639641 -34.779651 69.302106 -58.317411 42.176346 35.852356 -8.738791 -8.814293 0.000000 0.000000 0.000000 -7.125000 0.000000 0.000000 7.919277 40.684155 0.848864 0.000000 0.000000 0.000000 -24.417826 -20.483796 30.310266 -78.708203 -59.512258 -50.237120 -43.479854 -4.160973 -14.616289 0.000000 0.000000 0.000000 7.125000 0.000000 0.000000 -10.478655 10.467438 -8.548588
12.331563 14.485993 -4.699941 -550.182411 65.473702 540.462237 0.000000 0.000000 0.000000 -23.577619 -9.754707 -49.245132 14.032890 19.123755 72.304752 2.263225 0.511735 -28.673138 0.269486 -3.339452 -9.225385 0.000000 0.000000 0.000000 0.373444 11.824143 -68.071604 -17.145652 -19.798447 81.626309 -1.270307 -1.519888 -21.892598 -0.125860 -2.286966 6.299457 2.099990 1.817563 29.642168 2.064979 4.369888 10.062573 -0.398013 2.644721 -4.974496 6.715261 10.088060 -12.240142 -14.085498 13.162814 -6.123255 -4.539449 6.609951 1.565097 0.000000 0.000000 0.000000 15.211600 -11.092826 -39.431244 79.928170 -59.612819 51.288878 35.354071 -8.475571 -8.505132 0.000000 0.000000 0.000000 -7.125000 0.000000 0.000000 7.461519 40.260177 0.877468 0.000000 0.000000 0.000000 -21.890478 -15.637818 32.191049 -66.608258 -57.827321 -39.889970 -44.057346 -4.799588 -14.968369 0.000000 0.000000 0.000000 7.125000 0.000000 0.000000 -10.770335 9.855244 -8.931370
13.663990 15.000911 -4.784874 -549.689125 64.809456 539.770674 0.000000 0.000000 0.000000 -23.360474 -5.117035 -39.599187 11.738580 18.277531 65.157408 2.248713 0.452997 -28.561320 0.436985 -4.241168 -11.756110 0.000000 0.000000 0.000000 -1.915086 14.321537 -60.490860 -10.048982 -17.436770 59.651203 -0.258785 -1.236435 -10.129831 -0.265806 -3.306259 9.133539 2.317249 1.997808 25.144707 2.023364 4.257857 8.968544 -0.339336 2.501342 -4.036969 6.522167 10.353599 -12.582064 -13.072569 13.642449 -2.365135 -4.043613 6.631089 2.687599 0.000000 0.000000 0.000000 14.958487 -7.380688 -42.898170 81.537784 -59.727385 52.678250 34.808358 -8.384977 -8.355609 0.000000 0.000000 0.000000 -7.125000 0.000000 0.000000 6.971413 40.027266 0.859339 0.000000 0.000000 0.000000 -20.315400 -10.890901 34.016211 -59.909513 -56.285373 -34.265901 -43.807687 -4.290586 -14.916725 0.000000 0.000000 0.000000 7.125000 0.000000 0.000000 -10.624159 9.991003 -8.776102
15.020051 15.495414 -4.723981 -547.500274 63.403138 541.568362 0.000000 0.000000 0.000000 -20.973614 -2.163421 -31.427056 9.594799 17.175194 58.124699 1.952322 1.025542 -26.815195 0.666398 -5.220494 -14.538653 0.000000 0.000000 0.000000 3.871981 12.496261 -54.563769 -9.626688 -17.194434 58.233127 -0.296434 -1.527418 -10.955450 -0.962643 -6.245042 17.497841 2.994919 2.229652 20.234263 2.029232 4.299030 7.793134 -0.500547 2.446597 -2.813844 6.479665 10.313147 -12.236867 -11.781630 13.622697 -0.038029 -3.615940 6.535408 3.222232 0.000000 0.000000 0.000000 14.518063 -2.988054 -44.569344 70.569881 -58.522918 43.256644 35.128916 -9.195238 -8.611039 0.000000 0.000000 0.000000 -7.125000 0.000000 0.000000 7.265187 40.365294 0.835175 0.000000 0.000000 0.000000 -18.670994 -7.379133 35.642485 -55.217977 -54.894537 -30.394293 -43.642517 -4.804436 -14.998889 0.000000 0.000000 0.000000 7.125000 0.000000 0.000000 -10.503407 9.930329 -8.685862
